HIERARCHY
ROOT hip
{
  OFFSET 0 0 0
  CHANNELS 6 Xposition Yposition Zposition Zrotation Yrotation Xrotation
  JOINT abdomen
  {
    OFFSET 0 20.6881 -0.73152
    CHANNELS 3 Zrotation Xrotation Yrotation
    JOINT chest
    {
      OFFSET 0 11.7043 -0.48768
      CHANNELS 3 Zrotation Xrotation Yrotation
      JOINT neck
      {
        OFFSET 0 22.1894 -2.19456
        CHANNELS 3 Zrotation Xrotation Yrotation
        JOINT head
        {
          OFFSET -0.24384 7.07133 1.2192
          CHANNELS 3 Zrotation Xrotation Yrotation
          JOINT leftEye
          {
            OFFSET 4.14528 8.04674 8.04672
            CHANNELS 3 Zrotation Xrotation Yrotation
            End Site
            {
              OFFSET 1 0 0
            }
          }
          JOINT rightEye
          {
            OFFSET -3.6576 8.04674 8.04672
            CHANNELS 3 Zrotation Xrotation Yrotation
            End Site
            {
              OFFSET 1 0 0
            }
          }
        }
      }
      JOINT rCollar
      {
        OFFSET -2.68224 19.2634 -4.8768
        CHANNELS 3 Zrotation Xrotation Yrotation
        JOINT rShldr
        {
          OFFSET -8.77824 -1.95073 1.46304
          CHANNELS 3 Zrotation Xrotation Yrotation
          JOINT rForeArm
          {
            OFFSET -28.1742 -1.7115 0.48768
            CHANNELS 3 Zrotation Xrotation Yrotation
            JOINT rHand
            {
              OFFSET -22.5879 0.773209 7.07136
              CHANNELS 3 Zrotation Xrotation Yrotation
              JOINT rThumb1
              {
                OFFSET -1.2192 -0.487915 3.41376
                CHANNELS 3 Zrotation Xrotation Yrotation
                JOINT rThumb2
                {
                  OFFSET -3.37035 -0.52449 3.41376
                  CHANNELS 3 Zrotation Xrotation Yrotation
                  End Site
                  {
                    OFFSET -1.78271 -1.18214 1.43049
                  }
                }
              }
              JOINT rIndex1
              {
                OFFSET -7.75947 0.938293 5.60832
                CHANNELS 3 Zrotation Xrotation Yrotation
                JOINT rIndex2
                {
                  OFFSET -2.54057 -0.884171 1.56538
                  CHANNELS 3 Zrotation Xrotation Yrotation
                  End Site
                  {
                    OFFSET -1.62519 -0.234802 1.16502
                  }
                }
              }
              JOINT rMid1
              {
                OFFSET -8.24714 1.18213 3.41376
                CHANNELS 3 Zrotation Xrotation Yrotation
                JOINT rMid2
                {
                  OFFSET -3.10165 -0.590103 1.0647
                  CHANNELS 3 Zrotation Xrotation Yrotation
                  End Site
                  {
                    OFFSET -2.48547 -0.328903 0.83742
                  }
                }
              }
              JOINT rRing1
              {
                OFFSET -8.82822 0.546677 1.51678
                CHANNELS 3 Zrotation Xrotation Yrotation
                JOINT rRing2
                {
                  OFFSET -2.60934 -0.819778 -0.0198488
                  CHANNELS 3 Zrotation Xrotation Yrotation
                  End Site
                  {
                    OFFSET -2.33842 -0.294052 0.168128
                  }
                }
              }
              JOINT rPinky1
              {
                OFFSET -8.27202 -0.0477905 -0.4584
                CHANNELS 3 Zrotation Xrotation Yrotation
                JOINT rPinky2
                {
                  OFFSET -1.82734 -0.647385 -0.700984
                  CHANNELS 3 Zrotation Xrotation Yrotation
                  End Site
                  {
                    OFFSET -1.69225 -0.51767 -0.607171
                  }
                }
              }
            }
          }
        }
      }
      JOINT lCollar
      {
        OFFSET 2.68224 19.2634 -4.8768
        CHANNELS 3 Zrotation Xrotation Yrotation
        JOINT lShldr
        {
          OFFSET 8.77824 -1.95073 1.46304
          CHANNELS 3 Zrotation Xrotation Yrotation
          JOINT lForeArm
          {
            OFFSET 28.1742 -1.7115 0.48768
            CHANNELS 3 Zrotation Xrotation Yrotation
            JOINT lHand
            {
              OFFSET 22.5879 0.773209 7.07136
              CHANNELS 3 Zrotation Xrotation Yrotation
              JOINT lThumb1
              {
                OFFSET 1.2192 -0.487915 3.41376
                CHANNELS 3 Zrotation Xrotation Yrotation
                JOINT lThumb2
                {
                  OFFSET 3.37035 -0.52449 3.41376
                  CHANNELS 3 Zrotation Xrotation Yrotation
                  End Site
                  {
                    OFFSET 1.78271 -1.18214 1.43049
                  }
                }
              }
              JOINT lIndex1
              {
                OFFSET 7.75947 0.938293 5.60832
                CHANNELS 3 Zrotation Xrotation Yrotation
                JOINT lIndex2
                {
                  OFFSET 2.54057 -0.884171 1.56538
                  CHANNELS 3 Zrotation Xrotation Yrotation
                  End Site
                  {
                    OFFSET 1.62519 -0.234802 1.16502
                  }
                }
              }
              JOINT lMid1
              {
                OFFSET 8.24714 1.18213 3.41376
                CHANNELS 3 Zrotation Xrotation Yrotation
                JOINT lMid2
                {
                  OFFSET 3.10165 -0.590103 1.0647
                  CHANNELS 3 Zrotation Xrotation Yrotation
                  End Site
                  {
                    OFFSET 2.48547 -0.328903 0.83742
                  }
                }
              }
              JOINT lRing1
              {
                OFFSET 8.82822 0.546677 1.51678
                CHANNELS 3 Zrotation Xrotation Yrotation
                JOINT lRing2
                {
                  OFFSET 2.60934 -0.819778 -0.0198488
                  CHANNELS 3 Zrotation Xrotation Yrotation
                  End Site
                  {
                    OFFSET 2.33842 -0.294052 0.168128
                  }
                }
              }
              JOINT lPinky1
              {
                OFFSET 8.27202 -0.0477905 -0.4584
                CHANNELS 3 Zrotation Xrotation Yrotation
                JOINT lPinky2
                {
                  OFFSET 1.82734 -0.647385 -0.700984
                  CHANNELS 3 Zrotation Xrotation Yrotation
                  End Site
                  {
                    OFFSET 1.69225 -0.51767 -0.607171
                  }
                }
              }
            }
          }
        }
      }
    }
  }
  JOINT rButtock
  {
    OFFSET -8.77824 4.35084 1.2192
    CHANNELS 3 Zrotation Xrotation Yrotation
    JOINT rThigh
    {
      OFFSET 0 -1.70687 -2.19456
      CHANNELS 3 Zrotation Xrotation Yrotation
      JOINT rShin
      {
        OFFSET 0 -36.8199 0.73152
        CHANNELS 3 Zrotation Xrotation Yrotation
        JOINT rFoot
        {
          OFFSET 0.73152 -45.1104 -5.12064
          CHANNELS 3 Zrotation Xrotation Yrotation
          End Site
          {
            OFFSET -1.1221 -3.69964 12.103
          }
        }
      }
    }
  }
  JOINT lButtock
  {
    OFFSET 8.77824 4.35084 1.2192
    CHANNELS 3 Zrotation Xrotation Yrotation
    JOINT lThigh
    {
      OFFSET 0 -1.70687 -2.19456
      CHANNELS 3 Zrotation Xrotation Yrotation
      JOINT lShin
      {
        OFFSET 0 -36.8199 0.73152
        CHANNELS 3 Zrotation Xrotation Yrotation
        JOINT lFoot
        {
          OFFSET -0.73152 -45.1104 -5.12064
          CHANNELS 3 Zrotation Xrotation Yrotation
          End Site
          {
            OFFSET 1.1221 -3.69964 12.103
          }
        }
      }
    }
  }
}
MOTION
Frames:	5
Frame Time:	0.00833333
18.9945 66.2862 -9.52161 -174.817 -1.557 -156.279 8.78265 13.5488 6.43544 -1.28407 -9.37678 1.69117 -3.67056 -7.83352 -3.50123 -0.983831 -29.326 -8.07136 -0.0 0.0 0.0 -0.0 0.0 0.0 -2.88317e-14 2.86053e-13 -4.93887e-14 61.0702 49.1199 14.6137 -20.8034 -52.5365 112.238 -0.173183 -11.8204 -1.68519 -4.04341e-10 -1.21285e-09 1.418e-10 -6.9372e-10 -2.05516e-09 2.36568e-10 -4.0434e-10 -1.21284e-09 1.41792e-10 7.73091 5.47488 0.417314 -4.04346e-10 -1.21283e-09 1.41795e-10 2.90554 0.965183 0.102902 -4.04334e-10 -1.21284e-09 1.41798e-10 10.2786 0.731801 0.0259123 -4.04345e-10 -1.21285e-09 1.41804e-10 2.22167 -0.733487 -0.20892 -2.89047e-14 2.86049e-13 -4.95036e-14 -110.903 31.9629 63.3153 27.614 -42.0579 -87.7385 0.578434 -21.0681 3.10391 -2.19737e-10 -4.31287e-11 -8.02127e-10 -3.61484e-10 -6.18648e-11 -1.39754e-09 -2.19742e-10 -4.3127e-11 -8.02127e-10 -7.73091 5.47488 -0.417314 -2.19736e-10 -4.31281e-11 -8.02127e-10 -2.90554 0.965183 -0.102902 -2.19744e-10 -4.31286e-11 -8.02129e-10 -10.2786 0.731801 -0.0259123 -2.19734e-10 -4.31264e-11 -8.02137e-10 -2.22167 -0.733487 0.20892 -2.03217e-16 0.0 -3.88251e-19 10.1042 8.14083 -2.72215 0.0840641 26.1276 1.6564 -0.668087 17.1213 -1.06498 2.03217e-16 0.0 3.88251e-19 54.3032 -84.9247 53.1314 3.86098 76.5994 -3.78479 -1.97173 -2.96815 -13.7707
19.3624 66.4528 -13.9857 -174.468 -2.333 -156.521 9.36408 13.2698 6.70432 -1.49396 -9.17733 1.65801 -3.83773 -7.85553 -3.75788 -0.737177 -28.7769 -8.33359 -0.0 0.0 0.0 -0.0 0.0 0.0 -1.11862e-14 3.2797e-13 -6.69388e-14 60.4407 49.1468 14.4321 -20.4886 -52.8796 113.021 -0.19668 -12.564 -1.7947 -5.35387e-10 -2.02103e-09 3.07654e-10 -9.20814e-10 -3.45636e-09 5.22275e-10 -5.35387e-10 -2.02102e-09 3.07649e-10 7.73091 5.47488 0.417314 -5.35393e-10 -2.02101e-09 3.0765e-10 2.90554 0.965183 0.102902 -5.35382e-10 -2.02102e-09 3.07655e-10 10.2786 0.731801 0.0259123 -5.35391e-10 -2.02102e-09 3.07659e-10 2.22167 -0.733487 -0.20892 -1.1229e-14 3.27969e-13 -6.70106e-14 -111.018 30.8397 63.6512 27.5472 -42.3292 -88.2202 0.555073 -20.6584 3.03793 -8.64374e-11 4.53051e-10 -5.28673e-10 -1.34044e-10 7.93516e-10 -9.24279e-10 -8.64437e-11 4.53052e-10 -5.28672e-10 -7.73091 5.47488 -0.417314 -8.64375e-11 4.53049e-10 -5.28675e-10 -2.90554 0.965183 -0.102902 -8.64461e-11 4.53049e-10 -5.28675e-10 -10.2786 0.731801 -0.0259123 -8.6437e-11 4.53051e-10 -5.28683e-10 -2.22167 -0.733487 0.20892 -2.03217e-16 0.0 -3.88251e-19 11.0044 12.3315 -0.817057 0.122897 22.2468 1.66462 -0.145751 22.4754 -2.3948 2.03217e-16 0.0 3.88251e-19 51.8042 -84.8709 50.7517 2.65339 72.1346 -2.57211 -2.05876 -3.04867 -14.2602
19.7177 66.5868 -18.3038 -174.124 -3.1602 -156.714 9.79206 13.1045 6.88781 -1.69366 -9.02057 1.61617 -3.99032 -7.89893 -3.98144 -0.461753 -28.3354 -8.55426 -0.0 0.0 0.0 -0.0 0.0 0.0 -1.35055e-14 3.40319e-13 -8.50301e-14 60.2782 49.0698 14.0248 -20.5391 -52.9212 112.889 -0.21118 -12.9794 -1.85632 -6.40316e-10 -3.16211e-09 5.66384e-10 -1.1041e-09 -5.43589e-09 9.694e-10 -6.40316e-10 -3.1621e-09 5.6638e-10 7.73091 5.47488 0.417314 -6.40322e-10 -3.1621e-09 5.6638e-10 2.90554 0.965183 0.102902 -6.40311e-10 -3.1621e-09 5.66386e-10 10.2786 0.731801 0.0259123 -6.4032e-10 -3.1621e-09 5.6639e-10 2.22167 -0.733487 -0.20892 -1.35301e-14 3.40319e-13 -8.50798e-14 -111.028 29.8737 63.5669 27.4779 -42.5815 -88.6863 0.521162 -20.074 2.94391 3.77484e-11 8.11232e-10 -2.84176e-10 7.76902e-11 1.41029e-09 -5.00607e-10 3.77417e-11 8.11233e-10 -2.84173e-10 -7.73091 5.47488 -0.417314 3.77476e-11 8.1123e-10 -2.84179e-10 -2.90554 0.965183 -0.102902 3.77387e-11 8.11229e-10 -2.84178e-10 -10.2786 0.731801 -0.0259123 3.7748e-11 8.11231e-10 -2.84186e-10 -2.22167 -0.733487 0.20892 -2.03217e-16 0.0 -3.88251e-19 11.6805 15.3585 0.63948 0.140369 20.1763 1.67016 0.481156 26.0329 -3.74194 2.03217e-16 0.0 3.88251e-19 48.5749 -84.7745 47.8378 1.95511 67.9665 -1.81436 -2.05851 -2.87784 -14.5992
20.0616 66.6758 -22.4493 -173.813 -4.0173 -156.861 10.0736 13.0623 6.97257 -1.92024 -8.91303 1.56348 -4.13272 -8.00082 -4.17256 -0.139266 -27.9789 -8.72994 -0.0 0.0 0.0 -0.0 0.0 0.0 -5.92473e-14 3.10676e-13 -1.11507e-13 60.6352 48.8756 13.3867 -20.9853 -52.5335 111.773 -0.209448 -12.9223 -1.8479 -7.41397e-10 -5.1822e-09 1.04625e-09 -1.28346e-09 -8.94084e-09 1.80017e-09 -7.41396e-10 -5.18219e-09 1.04625e-09 7.73091 5.47488 0.417314 -7.41402e-10 -5.18219e-09 1.04625e-09 2.90554 0.965183 0.102902 -7.41392e-10 -5.18219e-09 1.04625e-09 10.2786 0.731801 0.0259123 -7.41401e-10 -5.18219e-09 1.04626e-09 2.22167 -0.733487 -0.20892 -5.92727e-14 3.10674e-13 -1.11567e-13 -110.914 28.9905 63.0051 27.3994 -42.8382 -89.1817 0.473992 -19.2274 2.80892 1.75784e-10 9.96394e-10 -3.18427e-11 3.12913e-10 1.72737e-09 -6.2382e-11 1.75778e-10 9.96394e-10 -3.18367e-11 -7.73091 5.47488 -0.417314 1.75783e-10 9.96391e-10 -3.18449e-11 -2.90554 0.965183 -0.102902 1.75774e-10 9.9639e-10 -3.1844e-11 -10.2786 0.731801 -0.0259123 1.75785e-10 9.96392e-10 -3.18514e-11 -2.22167 -0.733487 0.20892 -2.03217e-16 0.0 -3.88251e-19 12.3983 16.9758 1.5593 0.134171 20.313 1.66527 0.965558 27.0846 -4.96279 2.03217e-16 0.0 3.88251e-19 44.76 -84.6591 44.5771 1.50097 63.9278 -1.21986 -1.93251 -2.33629 -14.7362
20.3898 66.7027 -26.404 -173.584 -4.8816 -156.968 10.261 13.1318 6.96196 -2.16394 -8.85558 1.49305 -4.26777 -8.14872 -4.33152 0.222828 -27.665 -8.85072 -0.0 0.0 0.0 -0.0 0.0 0.0 -1.32438e-13 2.51067e-13 -1.43523e-13 61.4167 48.5615 12.5339 -21.7591 -51.7672 109.764 -0.199053 -12.6103 -1.80173 -8.36744e-10 -7.87784e-09 1.69298e-09 -1.45495e-09 -1.36195e-08 2.92049e-09 -8.36741e-10 -7.87783e-09 1.69298e-09 7.73091 5.47488 0.417314 -8.36747e-10 -7.87784e-09 1.69298e-09 2.90554 0.965183 0.102902 -8.36739e-10 -7.87784e-09 1.69298e-09 10.2786 0.731801 0.0259123 -8.36749e-10 -7.87784e-09 1.69299e-09 2.22167 -0.733487 -0.20892 -1.32476e-13 2.51062e-13 -1.43613e-13 -110.698 28.1508 62.0086 27.3246 -43.0793 -89.6422 0.420534 -18.1769 2.64395 3.37785e-10 1.11002e-09 2.69342e-10 5.88569e-10 1.91989e-09 4.61261e-10 3.3778e-10 1.11002e-09 2.69352e-10 -7.73091 5.47488 -0.417314 3.37784e-10 1.11002e-09 2.69342e-10 -2.90554 0.965183 -0.102902 3.37777e-10 1.11002e-09 2.69341e-10 -10.2786 0.731801 -0.0259123 3.37789e-10 1.11002e-09 2.69335e-10 -2.22167 -0.733487 0.20892 -2.03217e-16 0.0 -3.88251e-19 13.2711 17.5188 2.14275 0.105109 22.0719 1.65076 1.3032 26.2836 -6.23263 2.03217e-16 0.0 3.88251e-19 39.9489 -84.4586 40.5066 1.21386 59.9457 -0.729397 -1.698 -1.49902 -14.6892
